<svg width="227" height="48" viewBox="0 0 227 48" fill="none" xmlns="http://www.w3.org/2000/svg">
<path d="M105.112 12.208V20H103.88V14.832C103.88 14.6613 103.885 14.496 103.896 14.336C103.907 14.1653 103.917 13.984 103.928 13.792H103.896C103.832 13.9413 103.747 14.1013 103.64 14.272C103.544 14.432 103.448 14.576 103.352 14.704L99.384 20H98.264V12.208H99.496V17.376C99.496 17.5467 99.4907 17.7173 99.48 17.888C99.48 18.048 99.4693 18.224 99.448 18.416H99.48C99.5653 18.256 99.656 18.096 99.752 17.936C99.848 17.776 99.944 17.6373 100.04 17.52L104.008 12.208H105.112ZM108.999 12.208V20H107.655V12.208H108.999ZM113.239 15.344V16.384H108.903V15.344H113.239ZM114.439 12.208V20H113.095V12.208H114.439ZM120.135 12.128C120.946 12.128 121.586 12.1867 122.055 12.304C122.535 12.4213 122.882 12.6293 123.095 12.928C123.308 13.2267 123.415 13.6533 123.415 14.208C123.415 14.7627 123.282 15.184 123.015 15.472C122.759 15.7493 122.332 15.9147 121.735 15.968V16.016C122.46 16.0693 122.967 16.272 123.255 16.624C123.543 16.9653 123.687 17.4507 123.687 18.08C123.687 18.6133 123.58 19.0293 123.367 19.328C123.164 19.616 122.834 19.8187 122.375 19.936C121.927 20.0533 121.324 20.112 120.567 20.112C120.023 20.112 119.548 20.1067 119.143 20.096C118.738 20.096 118.364 20.0853 118.023 20.064C117.692 20.0533 117.34 20.0373 116.967 20.016L117.159 19.008C117.372 19.0187 117.767 19.0293 118.343 19.04C118.919 19.04 119.596 19.04 120.375 19.04C120.855 19.04 121.239 19.008 121.527 18.944C121.815 18.8693 122.018 18.7413 122.135 18.56C122.263 18.3787 122.327 18.1227 122.327 17.792C122.327 17.2907 122.178 16.9493 121.879 16.768C121.58 16.576 121.052 16.48 120.295 16.48H117.143V15.504H120.295C120.743 15.504 121.1 15.472 121.367 15.408C121.634 15.344 121.826 15.2267 121.943 15.056C122.06 14.8747 122.119 14.6293 122.119 14.32C122.119 14.0213 122.055 13.792 121.927 13.632C121.799 13.472 121.586 13.36 121.287 13.296C120.988 13.232 120.588 13.2 120.087 13.2C119.628 13.1893 119.212 13.184 118.839 13.184C118.476 13.184 118.156 13.1893 117.879 13.2C117.602 13.2 117.362 13.2107 117.159 13.232L116.967 12.224C117.298 12.192 117.612 12.1707 117.911 12.16C118.21 12.1493 118.535 12.144 118.887 12.144C119.239 12.1333 119.655 12.128 120.135 12.128ZM118.247 12.224V20.016H116.967V12.224H118.247ZM129.011 12.016C130.184 12.016 131.032 12.2293 131.555 12.656C132.088 13.0827 132.36 13.7173 132.371 14.56C132.371 15.2533 132.222 15.7973 131.923 16.192C131.635 16.576 131.166 16.768 130.515 16.768H125.955V15.712H130.163C130.504 15.712 130.728 15.5947 130.835 15.36C130.952 15.1147 131.006 14.848 130.995 14.56C130.995 14.0587 130.851 13.7013 130.563 13.488C130.275 13.2747 129.779 13.168 129.075 13.168C128.51 13.168 128.062 13.2533 127.731 13.424C127.411 13.584 127.182 13.872 127.043 14.288C126.915 14.6933 126.851 15.264 126.851 16C126.851 16.832 126.931 17.4667 127.091 17.904C127.262 18.3413 127.528 18.64 127.891 18.8C128.254 18.96 128.734 19.04 129.331 19.04C129.758 19.04 130.216 19.024 130.707 18.992C131.208 18.9493 131.656 18.9013 132.051 18.848L132.179 19.76C131.944 19.856 131.646 19.936 131.283 20C130.92 20.064 130.547 20.112 130.163 20.144C129.79 20.176 129.454 20.192 129.155 20.192C128.27 20.192 127.55 20.0587 126.995 19.792C126.451 19.5147 126.056 19.0773 125.811 18.48C125.566 17.872 125.443 17.072 125.443 16.08C125.443 15.056 125.566 14.2507 125.811 13.664C126.067 13.0667 126.456 12.6453 126.979 12.4C127.502 12.144 128.179 12.016 129.011 12.016ZM137.78 12.016C138.014 12.016 138.276 12.0267 138.564 12.048C138.862 12.0693 139.161 12.1067 139.46 12.16C139.758 12.2133 140.036 12.288 140.292 12.384L140.116 13.264C139.764 13.232 139.39 13.2107 138.996 13.2C138.612 13.1787 138.281 13.168 138.004 13.168C137.396 13.168 136.905 13.2533 136.532 13.424C136.169 13.5947 135.908 13.8933 135.748 14.32C135.588 14.7467 135.508 15.3387 135.508 16.096C135.508 16.8533 135.588 17.4507 135.748 17.888C135.908 18.3147 136.169 18.6133 136.532 18.784C136.905 18.9547 137.396 19.04 138.004 19.04C138.164 19.04 138.372 19.0347 138.628 19.024C138.894 19.0133 139.172 18.9973 139.46 18.976C139.758 18.9547 140.041 18.9227 140.308 18.88L140.436 19.792C140.052 19.9307 139.625 20.032 139.156 20.096C138.697 20.16 138.238 20.192 137.78 20.192C136.884 20.192 136.164 20.0587 135.62 19.792C135.076 19.5253 134.681 19.0933 134.436 18.496C134.201 17.8987 134.084 17.0987 134.084 16.096C134.084 15.0933 134.201 14.2933 134.436 13.696C134.681 13.0987 135.076 12.672 135.62 12.416C136.164 12.1493 136.884 12.016 137.78 12.016ZM145.671 12.208V20H144.311V12.208H145.671ZM148.487 12.208V13.328H141.479V12.208H148.487ZM157.018 12.208V20H155.786V14.832C155.786 14.6613 155.792 14.496 155.802 14.336C155.813 14.1653 155.824 13.984 155.834 13.792H155.802C155.738 13.9413 155.653 14.1013 155.546 14.272C155.45 14.432 155.354 14.576 155.258 14.704L151.29 20H150.17V12.208H151.402V17.376C151.402 17.5467 151.397 17.7173 151.386 17.888C151.386 18.048 151.376 18.224 151.354 18.416H151.386C151.472 18.256 151.562 18.096 151.658 17.936C151.754 17.776 151.85 17.6373 151.946 17.52L155.914 12.208H157.018ZM160.905 12.208V20H159.577V12.208H160.905ZM167.193 18.912V20H160.793L160.777 18.912H167.193ZM166.137 12.208L166.121 20H164.777V12.208H166.137ZM167.193 19.92V22.304H166.297L166.153 19.92H167.193ZM175.909 12.208V20H174.677V14.832C174.677 14.6613 174.682 14.496 174.693 14.336C174.704 14.1653 174.714 13.984 174.725 13.792H174.693C174.629 13.9413 174.544 14.1013 174.437 14.272C174.341 14.432 174.245 14.576 174.149 14.704L170.181 20H169.061V12.208H170.293V17.376C170.293 17.5467 170.288 17.7173 170.277 17.888C170.277 18.048 170.266 18.224 170.245 18.416H170.277C170.362 18.256 170.453 18.096 170.549 17.936C170.645 17.776 170.741 17.6373 170.837 17.52L174.805 12.208H175.909ZM181.764 12.016C182.66 12.016 183.374 12.1493 183.908 12.416C184.441 12.6827 184.825 13.12 185.06 13.728C185.305 14.3253 185.428 15.12 185.428 16.112C185.428 17.104 185.305 17.904 185.06 18.512C184.825 19.1093 184.441 19.5413 183.908 19.808C183.374 20.0747 182.66 20.208 181.764 20.208C180.868 20.208 180.148 20.0747 179.604 19.808C179.07 19.5413 178.681 19.1093 178.436 18.512C178.201 17.904 178.084 17.104 178.084 16.112C178.084 15.12 178.201 14.3253 178.436 13.728C178.681 13.12 179.07 12.6827 179.604 12.416C180.148 12.1493 180.868 12.016 181.764 12.016ZM181.764 13.168C181.198 13.168 180.75 13.2587 180.42 13.44C180.089 13.6107 179.854 13.9093 179.716 14.336C179.577 14.7627 179.508 15.3547 179.508 16.112C179.508 16.8693 179.577 17.4613 179.716 17.888C179.854 18.3147 180.089 18.6187 180.42 18.8C180.75 18.9707 181.198 19.056 181.764 19.056C182.329 19.056 182.772 18.9707 183.092 18.8C183.422 18.6187 183.657 18.3147 183.796 17.888C183.934 17.4613 184.004 16.8693 184.004 16.112C184.004 15.3547 183.934 14.7627 183.796 14.336C183.657 13.9093 183.422 13.6107 183.092 13.44C182.772 13.2587 182.329 13.168 181.764 13.168ZM188.936 12.208V20H187.592V12.208H188.936ZM193.176 15.344V16.384H188.84V15.344H193.176ZM194.376 12.208V20H193.032V12.208H194.376ZM198.249 12.208V20H196.905V12.208H198.249ZM202.489 15.344V16.384H198.153V15.344H202.489ZM203.689 12.208V20H202.345V12.208H203.689ZM209.913 12.016C210.489 12.016 210.974 12.096 211.369 12.256C211.764 12.4053 212.062 12.6613 212.265 13.024C212.468 13.3867 212.569 13.8827 212.569 14.512V20H211.497L211.289 18.304L211.209 18.128V14.512C211.198 14.032 211.086 13.6907 210.873 13.488C210.66 13.2747 210.244 13.168 209.625 13.168C209.209 13.168 208.692 13.1893 208.073 13.232C207.465 13.2747 206.862 13.3227 206.265 13.376L206.137 12.368C206.5 12.304 206.9 12.2453 207.337 12.192C207.774 12.1387 208.217 12.096 208.665 12.064C209.113 12.032 209.529 12.016 209.913 12.016ZM211.929 15.2L211.913 16.224L208.201 16.24C207.828 16.2507 207.561 16.352 207.401 16.544C207.252 16.7253 207.177 16.9813 207.177 17.312V17.808C207.177 18.2133 207.273 18.512 207.465 18.704C207.668 18.8853 207.977 18.976 208.393 18.976C208.692 18.976 209.028 18.9227 209.401 18.816C209.785 18.6987 210.169 18.5227 210.553 18.288C210.937 18.0533 211.289 17.7547 211.609 17.392V18.4C211.502 18.5493 211.337 18.7253 211.113 18.928C210.9 19.12 210.638 19.312 210.329 19.504C210.03 19.6853 209.694 19.84 209.321 19.968C208.948 20.0853 208.548 20.144 208.121 20.144C207.662 20.144 207.257 20.064 206.905 19.904C206.553 19.7333 206.281 19.488 206.089 19.168C205.897 18.8373 205.801 18.4373 205.801 17.968V17.12C205.801 16.512 205.988 16.0427 206.361 15.712C206.745 15.3707 207.278 15.2 207.961 15.2H211.929ZM217.765 12.128C218.352 12.128 218.837 12.1333 219.221 12.144C219.605 12.144 219.947 12.1547 220.245 12.176C220.555 12.1867 220.875 12.208 221.205 12.24L221.013 13.28C220.896 13.2587 220.544 13.2427 219.957 13.232C219.381 13.2213 218.661 13.216 217.797 13.216C217.147 13.216 216.715 13.328 216.501 13.552C216.299 13.7653 216.197 14.1227 216.197 14.624C216.197 15.1467 216.304 15.5253 216.517 15.76C216.741 15.984 217.184 16.096 217.845 16.096H221.029L221.061 17.104C220.944 17.104 220.747 17.1093 220.469 17.12C220.192 17.12 219.829 17.12 219.381 17.12C218.933 17.12 218.4 17.12 217.781 17.12C217.408 17.12 217.104 17.1893 216.869 17.328C216.645 17.4667 216.496 17.664 216.421 17.92L215.829 20H214.421L215.125 17.664C215.2 17.44 215.317 17.2587 215.477 17.12C215.648 16.9813 215.835 16.88 216.037 16.816C216.251 16.7413 216.453 16.6933 216.645 16.672V16.608C216.219 16.544 215.872 16.4213 215.605 16.24C215.349 16.0587 215.163 15.8187 215.045 15.52C214.928 15.2107 214.869 14.848 214.869 14.432C214.869 14.0693 214.912 13.744 214.997 13.456C215.093 13.168 215.253 12.928 215.477 12.736C215.701 12.5333 216 12.384 216.373 12.288C216.747 12.1813 217.211 12.128 217.765 12.128ZM221.205 12.24V20H219.877V12.24H221.205ZM99.96 31.176C100.643 31.176 101.331 31.1813 102.024 31.192C102.728 31.2027 103.4 31.24 104.04 31.304L103.992 32.264H100.52C100.189 32.264 99.9493 32.3387 99.8 32.488C99.6507 32.6373 99.576 32.8827 99.576 33.224V39H98.232V32.872C98.232 32.3173 98.376 31.896 98.664 31.608C98.9627 31.32 99.3947 31.176 99.96 31.176ZM110.119 31.016C111.079 31.016 111.767 31.368 112.183 32.072C112.599 32.7653 112.807 33.7893 112.807 35.144C112.807 36.1467 112.7 36.9467 112.487 37.544C112.273 38.1307 111.948 38.552 111.511 38.808C111.073 39.064 110.524 39.192 109.863 39.192C109.351 39.192 108.844 39.1227 108.343 38.984C107.841 38.8453 107.361 38.632 106.903 38.344L106.983 37.528C107.484 37.6667 107.921 37.784 108.295 37.88C108.679 37.9653 109.084 38.008 109.511 38.008C109.969 38.008 110.332 37.928 110.599 37.768C110.876 37.608 111.079 37.32 111.207 36.904C111.335 36.488 111.399 35.9013 111.399 35.144C111.399 34.408 111.34 33.8267 111.223 33.4C111.116 32.9733 110.935 32.6693 110.679 32.488C110.433 32.296 110.103 32.2 109.687 32.2C109.26 32.2 108.839 32.3013 108.423 32.504C108.007 32.7067 107.521 33.016 106.967 33.432L106.823 32.52C107.111 32.2107 107.436 31.944 107.799 31.72C108.161 31.496 108.54 31.3253 108.935 31.208C109.34 31.08 109.735 31.016 110.119 31.016ZM106.775 31.208L106.935 32.824L107.015 33.032V38.024L106.951 38.216C106.983 38.5147 107.004 38.8027 107.015 39.08C107.025 39.3573 107.025 39.6507 107.015 39.96V42.216H105.671V31.208H106.775ZM121.817 31.208L118.713 39.432C118.627 39.656 118.515 39.9067 118.377 40.184C118.249 40.4613 118.089 40.7333 117.897 41C117.715 41.2773 117.497 41.512 117.241 41.704C116.846 42.0027 116.403 42.1787 115.913 42.232C115.433 42.296 114.91 42.2907 114.345 42.216L114.473 41.272C114.814 41.2827 115.145 41.2667 115.465 41.224C115.795 41.192 116.089 41.0907 116.345 40.92C116.569 40.76 116.771 40.536 116.953 40.248C117.145 39.9707 117.305 39.6667 117.433 39.336L117.817 38.408C117.902 38.1947 117.987 37.96 118.073 37.704C118.158 37.448 118.238 37.2187 118.313 37.016L120.361 31.208H121.817ZM115.417 31.208L117.481 37.016C117.534 37.176 117.582 37.336 117.625 37.496C117.678 37.6453 117.726 37.8 117.769 37.96H118.137L117.673 39H117.273C117.155 39 117.054 38.968 116.969 38.904C116.883 38.84 116.819 38.7547 116.777 38.648L113.961 31.208H115.417ZM130.092 31.208V39H128.748V31.208H130.092ZM124.748 31.208V39H123.42V31.208H124.748ZM128.892 31.208L128.876 32.312H124.668V31.208H128.892ZM139.295 31.208V39H137.951V31.208H139.295ZM133.951 31.208V39H132.623V31.208H133.951ZM138.095 31.208L138.079 32.312H133.871V31.208H138.095ZM145.523 31.016C146.099 31.016 146.584 31.096 146.979 31.256C147.373 31.4053 147.672 31.6613 147.875 32.024C148.077 32.3867 148.179 32.8827 148.179 33.512V39H147.107L146.899 37.304L146.819 37.128V33.512C146.808 33.032 146.696 32.6907 146.483 32.488C146.269 32.2747 145.853 32.168 145.235 32.168C144.819 32.168 144.301 32.1893 143.683 32.232C143.075 32.2747 142.472 32.3227 141.875 32.376L141.747 31.368C142.109 31.304 142.509 31.2453 142.947 31.192C143.384 31.1387 143.827 31.096 144.275 31.064C144.723 31.032 145.139 31.016 145.523 31.016ZM147.539 34.2L147.523 35.224L143.811 35.24C143.437 35.2507 143.171 35.352 143.011 35.544C142.861 35.7253 142.787 35.9813 142.787 36.312V36.808C142.787 37.2133 142.883 37.512 143.075 37.704C143.277 37.8853 143.587 37.976 144.003 37.976C144.301 37.976 144.637 37.9227 145.011 37.816C145.395 37.6987 145.779 37.5227 146.163 37.288C146.547 37.0533 146.899 36.7547 147.219 36.392V37.4C147.112 37.5493 146.947 37.7253 146.723 37.928C146.509 38.12 146.248 38.312 145.939 38.504C145.64 38.6853 145.304 38.84 144.931 38.968C144.557 39.0853 144.157 39.144 143.731 39.144C143.272 39.144 142.867 39.064 142.515 38.904C142.163 38.7333 141.891 38.488 141.699 38.168C141.507 37.8373 141.411 37.4373 141.411 36.968V36.12C141.411 35.512 141.597 35.0427 141.971 34.712C142.355 34.3707 142.888 34.2 143.571 34.2H147.539Z" fill="white"/>
<path d="M15.96 12.4C16.4667 12.4 16.9067 12.5467 17.28 12.84C17.68 13.1333 17.9467 13.52 18.08 14L26.08 40H19.84L14.2 19.72C14.0933 19.2667 13.9867 18.8133 13.88 18.36C13.7733 17.88 13.68 17.4267 13.6 17H12.52C12.44 17.4267 12.3467 17.88 12.24 18.36C12.16 18.8133 12.0533 19.2667 11.92 19.72L6.28 40H0L8.04 14C8.17333 13.52 8.42667 13.1333 8.8 12.84C9.2 12.5467 9.65333 12.4 10.16 12.4H15.96ZM20.2 28.12V32.72H5.88V28.12H20.2ZM39.3728 12.08C41.7728 12.08 43.6795 12.2933 45.0928 12.72C46.5328 13.12 47.5728 13.84 48.2128 14.88C48.8528 15.92 49.1728 17.3867 49.1728 19.28C49.1728 21.2533 48.7861 22.76 48.0128 23.8C47.2661 24.8133 46.0261 25.4 44.2928 25.56V25.8C46.4261 25.9867 47.9195 26.7067 48.7728 27.96C49.6261 29.1867 50.0528 30.9067 50.0528 33.12C50.0528 35.0133 49.7195 36.48 49.0528 37.52C48.4128 38.56 47.3995 39.2933 46.0128 39.72C44.6528 40.12 42.8661 40.32 40.6528 40.32C38.8661 40.32 37.3061 40.3067 35.9728 40.28C34.6661 40.28 33.4528 40.2533 32.3328 40.2C31.2128 40.1467 30.0661 40.08 28.8928 40L29.4928 35.76C30.1328 35.7867 31.3595 35.8133 33.1728 35.84C35.0128 35.8667 37.1461 35.88 39.5728 35.88C40.6928 35.88 41.5728 35.7733 42.2128 35.56C42.8528 35.3467 43.2928 34.96 43.5328 34.4C43.7995 33.8133 43.9328 32.9867 43.9328 31.92C43.9328 30.7733 43.7995 29.9067 43.5328 29.32C43.2661 28.7067 42.7995 28.28 42.1328 28.04C41.4928 27.8 40.5995 27.6667 39.4528 27.64H29.4528V23.76H39.3728C40.3595 23.7333 41.1328 23.6267 41.6928 23.44C42.2795 23.2533 42.6928 22.8933 42.9328 22.36C43.1728 21.8267 43.2928 21.08 43.2928 20.12C43.2928 19.1333 43.1595 18.3867 42.8928 17.88C42.6528 17.3467 42.2261 16.9867 41.6128 16.8C40.9995 16.6133 40.1461 16.52 39.0528 16.52C37.5595 16.52 36.2395 16.52 35.0928 16.52C33.9461 16.52 32.9195 16.5333 32.0128 16.56C31.1061 16.56 30.2661 16.5867 29.4928 16.64L28.8928 12.4C29.9595 12.2933 30.9861 12.2267 31.9728 12.2C32.9861 12.1467 34.0795 12.12 35.2528 12.12C36.4261 12.0933 37.7995 12.08 39.3728 12.08ZM34.8928 12.4V40H28.8928V12.4H34.8928ZM76.3634 12.4L69.5634 25.84L76.8834 40H70.6434L63.7634 25.84L70.1634 12.4H76.3634ZM58.6434 12.4L65.0434 25.84L58.1634 40H51.9234L59.2034 25.84L52.4434 12.4H58.6434ZM67.3634 23.88V27.64H61.0834V23.88H67.3634Z" fill="white"/>
</svg>
