<svg width="30" height="30" viewBox="0 0 30 30" fill="none" xmlns="http://www.w3.org/2000/svg">
<path d="M23.75 7.5H20V6.25C20 5.58696 19.7366 4.95107 19.2678 4.48223C18.7989 4.01339 18.163 3.75 17.5 3.75H12.5C11.837 3.75 11.2011 4.01339 10.7322 4.48223C10.2634 4.95107 10 5.58696 10 6.25V7.5H6.25C5.25544 7.5 4.30161 7.89509 3.59835 8.59835C2.89509 9.30161 2.5 10.2554 2.5 11.25V22.5C2.5 23.4946 2.89509 24.4484 3.59835 25.1517C4.30161 25.8549 5.25544 26.25 6.25 26.25H23.75C24.7446 26.25 25.6984 25.8549 26.4017 25.1517C27.1049 24.4484 27.5 23.4946 27.5 22.5V11.25C27.5 10.2554 27.1049 9.30161 26.4017 8.59835C25.6984 7.89509 24.7446 7.5 23.75 7.5ZM12.5 6.25H17.5V7.5H12.5V6.25ZM25 22.5C25 22.8315 24.8683 23.1495 24.6339 23.3839C24.3995 23.6183 24.0815 23.75 23.75 23.75H6.25C5.91848 23.75 5.60054 23.6183 5.36612 23.3839C5.1317 23.1495 5 22.8315 5 22.5V15.4875L10.85 17.5C10.9827 17.518 11.1173 17.518 11.25 17.5H18.75C18.8856 17.4975 19.0201 17.4765 19.15 17.4375L25 15.4875V22.5ZM25 12.85L18.55 15H11.45L5 12.85V11.25C5 10.9185 5.1317 10.6005 5.36612 10.3661C5.60054 10.1317 5.91848 10 6.25 10H23.75C24.0815 10 24.3995 10.1317 24.6339 10.3661C24.8683 10.6005 25 10.9185 25 11.25V12.85Z" fill="white"/>
</svg>
